<?xml version="1.0" encoding="UTF-8"?>
<svg version="1.1" xmlns="http://www.w3.org/2000/svg" width="500" height="500">
<path d="M0 0 C54.45 0 108.9 0 165 0 C165 11.22 165 22.44 165 34 C173.58 34 182.16 34 191 34 C191 34.33 191 34.66 191 35 C189.35 35 187.7 35 186 35 C186 38.63 186 42.26 186 46 C187.65 46 189.3 46 191 46 C191 46.66 191 47.32 191 48 C182.42 48 173.84 48 165 48 C165 57.9 165 67.8 165 78 C110.55 78 56.1 78 0 78 C0 52.26 0 26.52 0 0 Z M43 25 C41.32442019 28.76693513 39.66108133 32.53915174 38 36.3125 C37.52304688 37.38435547 37.04609375 38.45621094 36.5546875 39.56054688 C36.10351562 40.58857422 35.65234375 41.61660156 35.1875 42.67578125 C34.55908203 44.0975769 34.55908203 44.0975769 33.91796875 45.5480957 C32.82468868 48.0319067 32.82468868 48.0319067 33 51 C33.99 50.67 34.98 50.34 36 50 C36.33 48.35 36.66 46.7 37 45 C39.27145346 45.03300659 41.54240126 45.10240005 43.8125 45.1875 C45.70935547 45.23970703 45.70935547 45.23970703 47.64453125 45.29296875 C51 46 51 46 52.82421875 48.55078125 C53.21222656 49.35902344 53.60023438 50.16726563 54 51 C54.66 51 55.32 51 56 51 C53.2310472 42.23164946 50.119612 33.239224 46 25 C45.01 25 44.02 25 43 25 Z M65 29 C62.25497785 33.43354093 62.34527747 37.93787701 63 43 C65.06658366 47.13316732 66.74917159 49.28257207 71 51 C75.13506246 51.56958821 78.87615175 51.39959049 82.8125 50 C85.89144379 47.18496568 87.58930917 43.90895337 89 40 C89 39.01 89 38.02 89 37 C84.38 37 79.76 37 75 37 C75 37.99 75 38.98 75 40 C78.3 40 81.6 40 85 40 C83.75023244 43.65316671 83.32901247 44.78065836 80 47 C76.93182913 47.53678864 74.07062045 47.5210078 71 47 C68.14161995 44.83878582 67.22534283 43.33308076 66.62890625 39.8046875 C66.42268348 36.01768759 66.53121598 33.72120618 68.625 30.5 C71.58989249 28.62743632 73.48392794 28.07032144 77 28 C80.125 29.3125 80.125 29.3125 83 31 C83.78375 31.391875 84.5675 31.78375 85.375 32.1875 C85.91125 32.455625 86.4475 32.72375 87 33 C86.4376049 29.73810844 85.5859495 28.08865152 83 26 C76.21219819 23.7373994 70.50937126 24.16250328 65 29 Z M98 25 C98 33.58 98 42.16 98 51 C98.99 50.67 99.98 50.34 101 50 C101 47.03 101 44.06 101 41 C102.98 41 104.96 41 107 41 C107.2475 41.53625 107.495 42.0725 107.75 42.625 C109.3140381 45.5966724 110.98376462 48.31168617 113 51 C113.99 51 114.98 51 116 51 C114.55049545 47.2089881 112.84827434 43.6125362 111 40 C111.639375 39.87625 112.27875 39.7525 112.9375 39.625 C113.618125 39.41875 114.29875 39.2125 115 39 C116.56700442 35.86599115 116.85164561 32.36844905 116 29 C110.37530495 23.64649406 110.37530495 23.64649406 98 25 Z M127 25 C125.73818905 26.03792772 125.73818905 26.03792772 125.88647461 28.31665039 C125.89171143 29.31688232 125.89694824 30.31711426 125.90234375 31.34765625 C125.90556641 32.42724609 125.90878906 33.50683594 125.91210938 34.61914062 C125.92048828 35.75544922 125.92886719 36.89175781 125.9375 38.0625 C125.94201172 39.20267578 125.94652344 40.34285156 125.95117188 41.51757812 C125.96300253 44.34510351 125.9794859 47.1725264 126 50 C126.99 50.33 127.98 50.66 129 51 C129 42.42 129 33.84 129 25 C128.34 25 127.68 25 127 25 Z M165 35 C165 38.3 165 41.6 165 45 C165.33 45 165.66 45 166 45 C166 41.7 166 38.4 166 35 C165.67 35 165.34 35 165 35 Z M167 35 C166.97311849 36.64574566 166.95365877 38.29161413 166.9375 39.9375 C166.92589844 40.85402344 166.91429687 41.77054688 166.90234375 42.71484375 C166.74050951 44.96593327 166.74050951 44.96593327 168 46 C170.33297433 46.04092937 172.66705225 46.04241723 175 46 C175 42.37 175 38.74 175 35 C172.36 35 169.72 35 167 35 Z M177 35 C177 38.63 177 42.26 177 46 C179.33294775 46.04241723 181.66702567 46.04092937 184 46 C185.89885096 44.10114904 185.12367506 41.42752097 185.1328125 38.91015625 C185.11686861 36.91365633 185.11686861 36.91365633 184 35 C181.69 35 179.38 35 177 35 Z M138 47 C138 47.33 138 47.66 138 48 C142.29 48 146.58 48 151 48 C151 47.67 151 47.34 151 47 C146.71 47 142.42 47 138 47 Z " fill="#17A24A" transform="translate(85,211)"/>
<path d="M0 0 C115.17 0 230.34 0 349 0 C349 31.68 349 63.36 349 96 C233.83 96 118.66 96 0 96 C0 64.32 0 32.64 0 0 Z M4 3 C3.67 32.37 3.34 61.74 3 92 C4.03810192 93.26085066 4.03810192 93.26085066 6.31711251 93.1241985 C7.35564761 93.12381878 8.39418271 93.12343906 9.46418858 93.12304783 C10.65750091 93.12503888 11.85081325 93.12702993 13.08028656 93.12908131 C14.42149026 93.12622772 15.76269377 93.12328212 17.10389709 93.12025452 C18.51544207 93.12069009 19.92698697 93.12156475 21.33853143 93.12284368 C25.23562056 93.12509129 29.13268246 93.12106375 33.02976811 93.11606562 C37.2254271 93.1117651 41.42108443 93.11320726 45.616745 93.1139679 C52.89207895 93.11449339 60.16740397 93.11134399 67.44273567 93.10573006 C77.96176892 93.09761842 88.48079783 93.09500018 98.99983387 93.09374207 C116.06442621 93.09155102 133.12901377 93.0848895 150.19360352 93.07543945 C166.77465796 93.0662667 183.35571111 93.0591852 199.93676758 93.05493164 C200.95805734 93.05466892 201.97934711 93.05440619 203.03158505 93.05413551 C208.15486677 93.05283051 213.27814851 93.0515668 218.40143025 93.05032361 C260.93429107 93.03994934 303.46714307 93.02151016 346 93 C346 63.3 346 33.6 346 3 C233.14 3 120.28 3 4 3 Z " fill="#050505" transform="translate(75,202)"/>
<path d="M0 0 C54.45 0 108.9 0 165 0 C165 11.22 165 22.44 165 34 C173.58 34 182.16 34 191 34 C191 34.33 191 34.66 191 35 C189.35 35 187.7 35 186 35 C186 38.63 186 42.26 186 46 C187.65 46 189.3 46 191 46 C191 46.66 191 47.32 191 48 C182.42 48 173.84 48 165 48 C165 57.9 165 67.8 165 78 C110.55 78 56.1 78 0 78 C0 52.26 0 26.52 0 0 Z M2 2 C2 26.42 2 50.84 2 76 C55.13 76 108.26 76 163 76 C163 66.76 163 57.52 163 48 C156.07 47.67 149.14 47.34 142 47 C142 43.04 142 39.08 142 35 C140.35 35 138.7 35 137 35 C137 34.34 137 33.68 137 33 C145.58 33 154.16 33 163 33 C163 22.77 163 12.54 163 2 C109.87 2 56.74 2 2 2 Z M165 35 C165 38.3 165 41.6 165 45 C165.33 45 165.66 45 166 45 C166 41.7 166 38.4 166 35 C165.67 35 165.34 35 165 35 Z M167 35 C166.97311849 36.64574566 166.95365877 38.29161413 166.9375 39.9375 C166.92589844 40.85402344 166.91429687 41.77054688 166.90234375 42.71484375 C166.74050951 44.96593327 166.74050951 44.96593327 168 46 C170.33297433 46.04092937 172.66705225 46.04241723 175 46 C175 42.37 175 38.74 175 35 C172.36 35 169.72 35 167 35 Z M177 35 C177 38.63 177 42.26 177 46 C179.33294775 46.04241723 181.66702567 46.04092937 184 46 C185.89885096 44.10114904 185.12367506 41.42752097 185.1328125 38.91015625 C185.11686861 36.91365633 185.11686861 36.91365633 184 35 C181.69 35 179.38 35 177 35 Z " fill="#2E9654" transform="translate(85,211)"/>
<path d="M0 0 C114.51 0 229.02 0 347 0 C347.33 0.99 347.66 1.98 348 3 C233.16 3 118.32 3 0 3 C0 2.01 0 1.02 0 0 Z " fill="#000000" transform="translate(76,295)"/>
<path d="M0 0 C5.6796875 -0.2578125 5.6796875 -0.2578125 8.5625 2.0625 C11.23033876 5.27758774 13.63631794 8.55577757 16 12 C16.09087891 10.82630859 16.09087891 10.82630859 16.18359375 9.62890625 C16.26738281 8.61699219 16.35117187 7.60507813 16.4375 6.5625 C16.51871094 5.55316406 16.59992188 4.54382813 16.68359375 3.50390625 C17 1 17 1 18 0 C21.5 -0.125 21.5 -0.125 25 0 C26 1 26 1 26.11352539 3.68383789 C26.10828857 4.85164795 26.10305176 6.01945801 26.09765625 7.22265625 C26.09443359 8.48271484 26.09121094 9.74277344 26.08789062 11.04101562 C26.07953403 12.38151109 26.07106907 13.72200588 26.0625 15.0625 C26.0574866 16.40689942 26.05292342 17.7513006 26.04882812 19.09570312 C26.03699488 22.39717941 26.02050971 25.69856803 26 29 C23.07430799 29.297528 20.85286212 29.51000887 18 29 C15.83356835 26.93204251 14.55079092 25.45036003 13 23 C12.60683594 22.42765625 12.21367187 21.8553125 11.80859375 21.265625 C10.84811098 19.86004046 9.92059038 18.43202947 9 17 C8.67 20.96 8.34 24.92 8 29 C5.36 29 2.72 29 0 29 C-1.02611524 22.55447615 -0.95269998 16.50333305 -0.5625 10 C-0.51029297 9.03449219 -0.45808594 8.06898438 -0.40429688 7.07421875 C-0.27586364 4.7157175 -0.14096811 2.35777955 0 0 Z " fill="#31C567" transform="translate(320,235)"/>
<path d="M0 0 C3.5 0.125 3.5 0.125 4.5 1.125 C4.57179964 2.64428038 4.58392007 4.16667482 4.5625 5.6875 C4.55347656 6.51378906 4.54445313 7.34007812 4.53515625 8.19140625 C4.52355469 8.82949219 4.51195312 9.46757812 4.5 10.125 C6.96955394 9.70877402 6.96955394 9.70877402 9.5 8.125 C10.86794337 5.50667089 11.6278559 2.9709439 12.5 0.125 C15.47 0.125 18.44 0.125 21.5 0.125 C19.74472424 8.65062511 19.74472424 8.65062511 18.421875 11.21484375 C16.89186805 14.38507002 17.70508854 16.775016 18.5 20.125 C19.70845967 22.55170444 21.08944469 24.80440901 22.5 27.125 C22.5 27.785 22.5 28.445 22.5 29.125 C19.2 29.125 15.9 29.125 12.5 29.125 C8.5 21.375 8.5 21.375 8.5 19.125 C7.18 19.125 5.86 19.125 4.5 19.125 C4.5 22.425 4.5 25.725 4.5 29.125 C1.53 29.125 -1.44 29.125 -4.5 29.125 C-4.52465881 25.15569011 -4.54284023 21.18640966 -4.55493164 17.21704102 C-4.55997057 15.86579614 -4.56680177 14.51455674 -4.57543945 13.16333008 C-4.58752419 11.22479566 -4.59269828 9.286222 -4.59765625 7.34765625 C-4.60289307 6.17984619 -4.60812988 5.01203613 -4.61352539 3.80883789 C-4.44208957 -0.24405228 -4.18416801 0.14943457 0 0 Z " fill="#22C45E" transform="translate(355.5,234.875)"/>
<path d="M0 0 C0.33 0 0.66 0 1 0 C1 11.22 1 22.44 1 34 C9.58 34 18.16 34 27 34 C27 34.33 27 34.66 27 35 C25.35 35 23.7 35 22 35 C22 38.63 22 42.26 22 46 C23.65 46 25.3 46 27 46 C27 46.66 27 47.32 27 48 C18.42 48 9.84 48 1 48 C1 57.9 1 67.8 1 78 C0.67 78 0.34 78 0 78 C-0.33 68.43 -0.66 58.86 -1 49 C-7.93 48.34 -14.86 47.68 -22 47 C-22 43.04 -22 39.08 -22 35 C-23.65 35 -25.3 35 -27 35 C-27 34.34 -27 33.68 -27 33 C-18.09 33 -9.18 33 0 33 C0 22.11 0 11.22 0 0 Z M1 35 C1 38.3 1 41.6 1 45 C1.33 45 1.66 45 2 45 C2 41.7 2 38.4 2 35 C1.67 35 1.34 35 1 35 Z M3 35 C2.97311849 36.64574566 2.95365877 38.29161413 2.9375 39.9375 C2.92589844 40.85402344 2.91429687 41.77054688 2.90234375 42.71484375 C2.74050951 44.96593327 2.74050951 44.96593327 4 46 C6.33297433 46.04092937 8.66705225 46.04241723 11 46 C11 42.37 11 38.74 11 35 C8.36 35 5.72 35 3 35 Z M13 35 C13 38.63 13 42.26 13 46 C15.33294775 46.04241723 17.66702567 46.04092937 20 46 C21.89885096 44.10114904 21.12367506 41.42752097 21.1328125 38.91015625 C21.11686861 36.91365633 21.11686861 36.91365633 20 35 C17.69 35 15.38 35 13 35 Z " fill="#7BD49A" transform="translate(249,211)"/>
<path d="M0 0 C2.64 0 5.28 0 8 0 C8 6.93 8 13.86 8 21 C11.96 21 15.92 21 20 21 C20 23.64 20 26.28 20 29 C13.4 29 6.8 29 0 29 C-0.7589151 25.20542449 -1.12822608 22.30138515 -1.1328125 18.515625 C-1.13410156 17.49855469 -1.13539063 16.48148438 -1.13671875 15.43359375 C-1.13285156 14.38300781 -1.12898438 13.33242187 -1.125 12.25 C-1.12886719 11.18394531 -1.13273437 10.11789063 -1.13671875 9.01953125 C-1.13542969 8.00761719 -1.13414062 6.99570313 -1.1328125 5.953125 C-1.13168457 5.02661133 -1.13055664 4.10009766 -1.12939453 3.14550781 C-1 1 -1 1 0 0 Z " fill="#25C460" transform="translate(282,235)"/>
<path d="M0 0 C0.33 0 0.66 0 1 0 C1.33 1.98 1.66 3.96 2 6 C2.66 5.01 3.32 4.02 4 3 C4 32.7 4 62.4 4 93 C3.01 93 2.02 93 1 93 C0.67 93.99 0.34 94.98 0 96 C0 64.32 0 32.64 0 0 Z " fill="#6A6A6A" transform="translate(75,202)"/>
<path d="M0 0 C3.5 0.125 3.5 0.125 4.5 1.125 C4.58767112 3.19762076 4.60695873 5.27320294 4.59765625 7.34765625 C4.59443359 8.60771484 4.59121094 9.86777344 4.58789062 11.16601562 C4.57953403 12.50651109 4.57106907 13.84700588 4.5625 15.1875 C4.5574866 16.53189942 4.55292342 17.8763006 4.54882812 19.22070312 C4.53699488 22.52217941 4.52050971 25.82356803 4.5 29.125 C1.53 29.125 -1.44 29.125 -4.5 29.125 C-4.52465881 25.15569011 -4.54284023 21.18640966 -4.55493164 17.21704102 C-4.55997057 15.86579614 -4.56680177 14.51455674 -4.57543945 13.16333008 C-4.58752419 11.22479566 -4.59269828 9.286222 -4.59765625 7.34765625 C-4.60289307 6.17984619 -4.60812988 5.01203613 -4.61352539 3.80883789 C-4.44208957 -0.24405228 -4.18416801 0.14943457 0 0 Z " fill="#28C260" transform="translate(309.5,234.875)"/>
<path d="M0 0 C3.073125 0.103125 6.14625 0.20625 9.3125 0.3125 C10.27712158 0.33739502 11.24174316 0.36229004 12.2355957 0.38793945 C13.38161255 0.43760864 13.38161255 0.43760864 14.55078125 0.48828125 C15.72120972 0.52755737 15.72120972 0.52755737 16.9152832 0.56762695 C19.50957562 1.10568666 20.42803454 1.89084319 22 4 C22.29296875 7.13671875 22.29296875 7.13671875 22.1875 10.6875 C22.16042969 11.86699219 22.13335937 13.04648438 22.10546875 14.26171875 C22.07066406 15.16535156 22.03585938 16.06898438 22 17 C22.66 15.68 23.32 14.36 24 13 C24 13.66 24 14.32 24 15 C24.66 15 25.32 15 26 15 C26.33 14.34 26.66 13.68 27 13 C27.33 13 27.66 13 28 13 C28.33 9.37 28.66 5.74 29 2 C30.65 1.67 32.3 1.34 34 1 C33.34 1.66 32.68 2.32 32 3 C31.68891503 5.489611 31.68891503 5.489611 31.734375 8.375 C31.73179687 9.44234375 31.72921875 10.5096875 31.7265625 11.609375 C31.73429687 12.72828125 31.74203125 13.8471875 31.75 15 C31.74226563 16.11890625 31.73453125 17.2378125 31.7265625 18.390625 C31.73042969 19.99164063 31.73042969 19.99164063 31.734375 21.625 C31.73663086 22.60726563 31.73888672 23.58953125 31.74121094 24.6015625 C31.76627137 27.18438497 31.76627137 27.18438497 34 29 C32.68 28.67 31.36 28.34 30 28 C29.34 24.37 28.68 20.74 28 17 C27.01 18.65 26.02 20.3 25 22 C24.34 21.01 23.68 20.02 23 19 C22.01 19.33 21.02 19.66 20 20 C21.0209375 20.86625 21.0209375 20.86625 22.0625 21.75 C22.701875 22.4925 23.34125 23.235 24 24 C23.75 26.25 23.75 26.25 23 28 C22.34 28 21.68 28 21 28 C19.7109375 26.35546875 19.7109375 26.35546875 18.375 24.1875 C17.92898437 23.47980469 17.48296875 22.77210938 17.0234375 22.04296875 C16 20 16 20 16 17 C17.32 16.67 18.64 16.34 20 16 C20.10824843 14.3973218 20.18570645 12.79254252 20.25 11.1875 C20.29640625 10.29417969 20.3428125 9.40085938 20.390625 8.48046875 C20.21708763 5.91837701 20.21708763 5.91837701 18.40625 4.21875 C15.29147193 2.64113513 12.72745957 2.48637298 9.25 2.3125 C7.1875 2.209375 5.125 2.10625 3 2 C3 10.58 3 19.16 3 28 C2.34 28 1.68 28 1 28 C0.67 18.76 0.34 9.52 0 0 Z " fill="#2BA157" transform="translate(180,234)"/>
<path d="M0 0 C3.5 0.125 3.5 0.125 4.5 1.125 C4.57179964 2.64428038 4.58392007 4.16667482 4.5625 5.6875 C4.55347656 6.51378906 4.54445313 7.34007812 4.53515625 8.19140625 C4.52355469 8.82949219 4.51195312 9.46757812 4.5 10.125 C6.96955394 9.70877402 6.96955394 9.70877402 9.5 8.125 C10.86794337 5.50667089 11.6278559 2.9709439 12.5 0.125 C15.47 0.125 18.44 0.125 21.5 0.125 C19.74472424 8.65062511 19.74472424 8.65062511 18.421875 11.21484375 C16.89186805 14.38507002 17.70508854 16.775016 18.5 20.125 C19.70845967 22.55170444 21.08944469 24.80440901 22.5 27.125 C22.5 27.785 22.5 28.445 22.5 29.125 C21.51 28.795 20.52 28.465 19.5 28.125 C19.17 27.135 18.84 26.145 18.5 25.125 C17.84 24.795 17.18 24.465 16.5 24.125 C15.64419598 21.37388131 15.02690378 18.5958175 14.37890625 15.7890625 C13.48324165 13.07420358 12.68032168 11.91055592 10.5 10.125 C9.84 10.785 9.18 11.445 8.5 12.125 C5.9375 12.3125 5.9375 12.3125 3.5 12.125 C2.5 11.125 2.5 11.125 2.40234375 9.05859375 C2.41974609 7.82302734 2.41974609 7.82302734 2.4375 6.5625 C2.44652344 5.73621094 2.45554687 4.90992188 2.46484375 4.05859375 C2.47644531 3.42050781 2.48804688 2.78242188 2.5 2.125 C0.85 2.125 -0.8 2.125 -2.5 2.125 C-2.83 11.035 -3.16 19.945 -3.5 29.125 C-3.83 29.125 -4.16 29.125 -4.5 29.125 C-4.52465881 25.15569011 -4.54284023 21.18640966 -4.55493164 17.21704102 C-4.55997057 15.86579614 -4.56680177 14.51455674 -4.57543945 13.16333008 C-4.58752419 11.22479566 -4.59269828 9.286222 -4.59765625 7.34765625 C-4.60289307 6.17984619 -4.60812988 5.01203613 -4.61352539 3.80883789 C-4.44208957 -0.24405228 -4.18416801 0.14943457 0 0 Z " fill="#3FC271" transform="translate(355.5,234.875)"/>
<path d="M0 0 C0.33 0.680625 0.66 1.36125 1 2.0625 C1.33 2.701875 1.66 3.34125 2 4 C5.56206661 4.81870185 5.56206661 4.81870185 9 5 C8.34 5.66 7.68 6.32 7 7 C4.40730017 6.98252112 1.9474846 6.86231408 -0.625 6.625 C-1.33140625 6.56828125 -2.0378125 6.5115625 -2.765625 6.453125 C-4.51121361 6.31159079 -6.25573673 6.15702613 -8 6 C-8.33 7.32 -8.66 8.64 -9 10 C-9 9.34 -9 8.68 -9 8 C-9.66 8 -10.32 8 -11 8 C-10.39816251 10.02045442 -9.72693904 12.02111039 -9 14 C-8.34 14.33 -7.68 14.66 -7 15 C-7 14.34 -7 13.68 -7 13 C-4.69 13 -2.38 13 0 13 C0 13.66 0 14.32 0 15 C-1.32 15.33 -2.64 15.66 -4 16 C-3.67 16.66 -3.34 17.32 -3 18 C-7.99184736 18.29363808 -10.97444744 18.07836372 -15 15 C-16.73899832 11.52200335 -16.58979036 7.794318 -16 4 C-13.89342904 1.19123872 -12.24860052 -0.37569974 -9.125 -1.9375 C-5.74970627 -2.03677334 -3.12894661 -1.21681257 0 0 Z " fill="#189F49" transform="translate(167,240)"/>
<path d="M0 0 C0.66 0 1.32 0 2 0 C2 3.96 2 7.92 2 12 C4.64 12 7.28 12 10 12 C10 8.04 10 4.08 10 0 C10.99 0 11.98 0 13 0 C13.33 3.3 13.66 6.6 14 10 C16.97 10.33 19.94 10.66 23 11 C23 7.37 23 3.74 23 0 C23.66 0 24.32 0 25 0 C25 3.63 25 7.26 25 11 C26.9490625 10.7215625 26.9490625 10.7215625 28.9375 10.4375 C31.15234375 10.12109375 31.15234375 10.12109375 33 10 C33.495 10.495 33.495 10.495 34 11 C35.66617115 11.04063832 37.33388095 11.042721 39 11 C39 11.66 39 12.32 39 13 C30.42 13 21.84 13 13 13 C13 22.9 13 32.8 13 43 C12.67 43 12.34 43 12 43 C11.67 33.43 11.34 23.86 11 14 C7.04 13.67 3.08 13.34 -1 13 C-0.67 8.71 -0.34 4.42 0 0 Z " fill="#86D7A4" transform="translate(237,246)"/>
<path d="M0 0 C0.66 0 1.32 0 2 0 C1.96519531 0.95261719 1.93039063 1.90523437 1.89453125 2.88671875 C1.86746094 4.14097656 1.84039062 5.39523438 1.8125 6.6875 C1.77769531 7.92886719 1.74289063 9.17023438 1.70703125 10.44921875 C2.02163489 14.2622149 2.6244579 16.03724525 5 19 C8.16754847 21.26060083 10.93132726 21.21592078 14.75 21.125 C15.73484375 21.10695313 16.7196875 21.08890625 17.734375 21.0703125 C18.48203125 21.04710937 19.2296875 21.02390625 20 21 C20 21.66 20 22.32 20 23 C17.0923543 23.82791734 14.45909481 24.16193659 11.4375 24.1875 C10.29087891 24.20876953 10.29087891 24.20876953 9.12109375 24.23046875 C7 24 7 24 4 22 C4 21.34 4 20.68 4 20 C3.38125 19.87625 2.7625 19.7525 2.125 19.625 C0 19 0 19 -2 17 C-2.99 17.33 -3.98 17.66 -5 18 C-5.73323796 20.01508358 -5.73323796 20.01508358 -6 22 C-7.00419637 19.5433053 -8.00350501 17.08481647 -9 14.625 C-9.28617188 13.92632812 -9.57234375 13.22765625 -9.8671875 12.5078125 C-12 7.2265625 -12 7.2265625 -12 5 C-11.34 5 -10.68 5 -10 5 C-9.01 6.485 -9.01 6.485 -8 8 C-5.43717258 8.72965366 -5.43717258 8.72965366 -3 9 C-2.01 6.03 -1.02 3.06 0 0 Z " fill="#2CA659" transform="translate(147,240)"/>
<path d="M0 0 C3.5 0.125 3.5 0.125 4.5 1.125 C4.58767112 3.19762076 4.60695873 5.27320294 4.59765625 7.34765625 C4.59443359 8.60771484 4.59121094 9.86777344 4.58789062 11.16601562 C4.57953403 12.50651109 4.57106907 13.84700588 4.5625 15.1875 C4.5574866 16.53189942 4.55292342 17.8763006 4.54882812 19.22070312 C4.53699488 22.52217941 4.52050971 25.82356803 4.5 29.125 C3.22125 29.186875 1.9425 29.24875 0.625 29.3125 C-0.45394531 29.36470703 -0.45394531 29.36470703 -1.5546875 29.41796875 C-2.19664062 29.32128906 -2.83859375 29.22460938 -3.5 29.125 C-4.16 28.135 -4.82 27.145 -5.5 26.125 C-1.54 27.115 -1.54 27.115 2.5 28.125 C2.33628906 27.16464844 2.17257812 26.20429688 2.00390625 25.21484375 C1.35905182 20.70086275 1.38982338 16.23878358 1.4375 11.6875 C1.44201172 10.86056641 1.44652344 10.03363281 1.45117188 9.18164062 C1.46284189 7.16272854 1.48077282 5.14385426 1.5 3.125 C0.51 3.125 -0.48 3.125 -1.5 3.125 C-0.96274105 6.50205625 -0.38935377 9.821686 0.5 13.125 C-1.15 14.445 -2.8 15.765 -4.5 17.125 C-5.49 16.465 -6.48 15.805 -7.5 15.125 C-7.17 13.805 -6.84 12.485 -6.5 11.125 C-6.17 11.455 -5.84 11.785 -5.5 12.125 C-5.43941406 11.34253906 -5.37882812 10.56007812 -5.31640625 9.75390625 C-5.23261719 8.74199219 -5.14882813 7.73007813 -5.0625 6.6875 C-4.98128906 5.67816406 -4.90007812 4.66882813 -4.81640625 3.62890625 C-4.32570438 -0.25430234 -4.09056656 0.14609166 0 0 Z " fill="#37BD69" transform="translate(341.5,234.875)"/>
<path d="M0 0 C0.99 0 1.98 0 3 0 C3.33 8.25 3.66 16.5 4 25 C-2 24 -2 24 -4 23 C-4.5 20.5 -4.5 20.5 -5 18 C-5.66 17.67 -6.32 17.34 -7 17 C-7 15.68 -7 14.36 -7 13 C-8.32 12.67 -9.64 12.34 -11 12 C-11 10.35 -11 8.7 -11 7 C-10.01 6.67 -9.02 6.34 -8 6 C-5.77810176 8.22189824 -5.07401108 10.08482708 -4 13 C-2.35 12.01 -0.7 11.02 1 10 C0.67 9.34 0.34 8.68 0 8 C-0.13415472 5.3276379 -0.04318541 2.67749512 0 0 Z " fill="#22C45E" transform="translate(340,238)"/>
<path d="M0 0 C12.21 0 24.42 0 37 0 C37 0.33 37 0.66 37 1 C35.35 1 33.7 1 32 1 C32 4.96 32 8.92 32 13 C31.67 13 31.34 13 31 13 C30.67 9.04 30.34 5.08 30 1 C24.39 1 18.78 1 13 1 C13 4.96 13 8.92 13 13 C12.67 13 12.34 13 12 13 C12 9.04 12 5.08 12 1 C10.68 1 9.36 1 8 1 C8 4.96 8 8.92 8 13 C5.36 13 2.72 13 0 13 C0 8.71 0 4.42 0 0 Z " fill="#439161" transform="translate(239,245)"/>
<path d="M0 0 C0.33 0 0.66 0 1 0 C1 6.6 1 13.2 1 20 C2.65 20 4.3 20 6 20 C5.98839844 19.37351562 5.97679687 18.74703125 5.96484375 18.1015625 C5.95582031 17.28429687 5.94679688 16.46703125 5.9375 15.625 C5.92589844 14.81289063 5.91429687 14.00078125 5.90234375 13.1640625 C6 11 6 11 7 9 C8.99609375 8.62109375 8.99609375 8.62109375 11.4375 8.4375 C14.84628205 8.1938825 14.84628205 8.1938825 18 7 C18.10957031 7.63808594 18.21914063 8.27617187 18.33203125 8.93359375 C18.56986328 10.17302734 18.56986328 10.17302734 18.8125 11.4375 C18.96332031 12.26121094 19.11414063 13.08492188 19.26953125 13.93359375 C19.51058594 14.61550781 19.75164062 15.29742187 20 16 C20.99 16.33 21.98 16.66 23 17 C23.6875 19.0625 23.6875 19.0625 24 21 C21.36 21 18.72 21 16 21 C15.32845067 19.71086513 14.66291141 18.41859796 14 17.125 C13.62875 16.40570313 13.2575 15.68640625 12.875 14.9453125 C12 13 12 13 12 11 C10.68 11 9.36 11 8 11 C8 14.3 8 17.6 8 21 C5.36 21 2.72 21 0 21 C0 14.07 0 7.14 0 0 Z " fill="#3DC26F" transform="translate(352,243)"/>
<path d="M0 0 C1.60875 -0.04125 3.2175 -0.0825 4.875 -0.125 C5.77992188 -0.14820313 6.68484375 -0.17140625 7.6171875 -0.1953125 C10 0 10 0 12 2 C12.125 5.625 12.125 5.625 12 9 C8.09971775 11.60018816 4.52565431 11.15085514 0 11 C0 7.37 0 3.74 0 0 Z " fill="#16A149" transform="translate(186,239)"/>
<path d="M0 0 C2.64 0 5.28 0 8 0 C8 6.93 8 13.86 8 21 C11.96 21 15.92 21 20 21 C20 23.64 20 26.28 20 29 C13.4 29 6.8 29 0 29 C-0.69903631 25.50481844 -1.15803583 22.78337922 -1.1875 19.3125 C-1.20167969 18.54550781 -1.21585937 17.77851563 -1.23046875 16.98828125 C-1 15 -1 15 1 13 C1.33 17.62 1.66 22.24 2 27 C7.28 27.33 12.56 27.66 18 28 C18 26.02 18 24.04 18 22 C14.37 22 10.74 22 7 22 C7 15.4 7 8.8 7 2 C5.02 2 3.04 2 1 2 C1 2.99 1 3.98 1 5 C0.34 5 -0.32 5 -1 5 C-0.67 3.35 -0.34 1.7 0 0 Z " fill="#68CC8E" transform="translate(282,235)"/>
<path d="M0 0 C0.33 0.66 0.66 1.32 1 2 C-0.32 1.67 -1.64 1.34 -3 1 C-3 1.66 -3 2.32 -3 3 C-4.32 3 -5.64 3 -7 3 C-7.66 4.32 -8.32 5.64 -9 7 C-9.66 7 -10.32 7 -11 7 C-11 6.34 -11 5.68 -11 5 C-11.66 5 -12.32 5 -13 5 C-12.67 5.99 -12.34 6.98 -12 8 C-12 8.66 -12 9.32 -12 10 C-11.67966043 12.00212229 -11.34740923 14.00239695 -11 16 C-11.99 16 -12.98 16 -14 16 C-16.67433178 11.98850232 -16.81902411 8.71559339 -16 4 C-13.89342904 1.19123872 -12.24860052 -0.37569974 -9.125 -1.9375 C-5.81893509 -2.0347372 -3.08846632 -1.10718604 0 0 Z " fill="#2EA55B" transform="translate(167,240)"/>
<path d="M0 0 C5.12583611 -0.10251672 9.94997778 -0.03590199 15 1 C15 1.33 15 1.66 15 2 C10.38 2 5.76 2 1 2 C1 2.99 1 3.98 1 5 C4.3 5 7.6 5 11 5 C10.69209738 7.84809926 10.34521809 9.58286148 8.5 11.8125 C4.73512805 13.60081417 1.09873595 13.23646554 -3 13 C-3.33 12.34 -3.66 11.68 -4 11 C-1.36 11 1.28 11 4 11 C3.67 10.34 3.34 9.68 3 9 C4.65 9 6.3 9 8 9 C8 8.34 8 7.68 8 7 C5.69 7 3.38 7 1 7 C1 7.66 1 8.32 1 9 C0.01 8.67 -0.98 8.34 -2 8 C-2.33 6.02 -2.66 4.04 -3 2 C-2.34 2 -1.68 2 -1 2 C-0.67 1.34 -0.34 0.68 0 0 Z " fill="#31A85E" transform="translate(159,246)"/>
<path d="M0 0 C3.073125 0.103125 6.14625 0.20625 9.3125 0.3125 C10.27712158 0.33739502 11.24174316 0.36229004 12.2355957 0.38793945 C13.38161255 0.43760864 13.38161255 0.43760864 14.55078125 0.48828125 C15.72120972 0.52755737 15.72120972 0.52755737 16.9152832 0.56762695 C19.49404936 1.1024665 20.41526285 1.92611563 22 4 C22.29296875 6.48046875 22.29296875 6.48046875 22.1875 9.1875 C22.16042969 10.08855469 22.13335937 10.98960937 22.10546875 11.91796875 C22.07066406 12.60503906 22.03585938 13.29210937 22 14 C21.67 14 21.34 14 21 14 C20.86979167 12.01432292 20.73958333 10.02864583 20.609375 8.04296875 C20.13142664 5.8804191 20.13142664 5.8804191 18.375 4.28125 C15.27552291 2.60916367 12.75467854 2.48773393 9.25 2.3125 C7.1875 2.209375 5.125 2.10625 3 2 C3 10.58 3 19.16 3 28 C2.34 28 1.68 28 1 28 C0.67 18.76 0.34 9.52 0 0 Z " fill="#58B37A" transform="translate(180,234)"/>
<path d="M0 0 C0.66 0 1.32 0 2 0 C2.33 0.66 2.66 1.32 3 2 C3.99 2.33 4.98 2.66 6 3 C6 4.32 6 5.64 6 7 C6.99 7.33 7.98 7.66 9 8 C9.33 8.99 9.66 9.98 10 11 C9.01 11 8.02 11 7 11 C5.04456468 8.84075874 3.61151878 6.43905546 2 4 C1.67 7.96 1.34 11.92 1 16 C-1.64 16 -4.28 16 -7 16 C-7.59332061 11.62426048 -8.13827236 7.42471556 -8 3 C-7.34 2.67 -6.68 2.34 -6 2 C-6 6.29 -6 10.58 -6 15 C-4.35 15 -2.7 15 -1 15 C-1.01160156 14.08476562 -1.02320313 13.16953125 -1.03515625 12.2265625 C-1.04417969 11.03804688 -1.05320312 9.84953125 -1.0625 8.625 C-1.07410156 7.44164062 -1.08570313 6.25828125 -1.09765625 5.0390625 C-1 2 -1 2 0 0 Z " fill="#46C176" transform="translate(327,248)"/>
<path d="M0 0 C3.5 0.125 3.5 0.125 4.5 1.125 C4.57179964 2.64428038 4.58392007 4.16667482 4.5625 5.6875 C4.55347656 6.51378906 4.54445313 7.34007812 4.53515625 8.19140625 C4.52355469 8.82949219 4.51195312 9.46757812 4.5 10.125 C6.48 9.465 8.46 8.805 10.5 8.125 C9.84 9.445 9.18 10.765 8.5 12.125 C6.83388095 12.167721 5.16617115 12.16563832 3.5 12.125 C2.5 11.125 2.5 11.125 2.40234375 9.05859375 C2.41974609 7.82302734 2.41974609 7.82302734 2.4375 6.5625 C2.44652344 5.73621094 2.45554687 4.90992188 2.46484375 4.05859375 C2.47644531 3.42050781 2.48804688 2.78242188 2.5 2.125 C0.85 2.125 -0.8 2.125 -2.5 2.125 C-2.83 11.035 -3.16 19.945 -3.5 29.125 C-3.83 29.125 -4.16 29.125 -4.5 29.125 C-4.52465881 25.15569011 -4.54284023 21.18640966 -4.55493164 17.21704102 C-4.55997057 15.86579614 -4.56680177 14.51455674 -4.57543945 13.16333008 C-4.58752419 11.22479566 -4.59269828 9.286222 -4.59765625 7.34765625 C-4.60289307 6.17984619 -4.60812988 5.01203613 -4.61352539 3.80883789 C-4.44208957 -0.24405228 -4.18416801 0.14943457 0 0 Z " fill="#70CF94" transform="translate(355.5,234.875)"/>
<path d="M0 0 C5 0 5 0 7 1 C7 4.3 7 7.6 7 11 C4.69 11 2.38 11 0 11 C0 7.37 0 3.74 0 0 Z " fill="#269750" transform="translate(229,246)"/>
<path d="M0 0 C3.5 0.125 3.5 0.125 4.5 1.125 C4.58767112 3.19762076 4.60695873 5.27320294 4.59765625 7.34765625 C4.59443359 8.60771484 4.59121094 9.86777344 4.58789062 11.16601562 C4.57953403 12.50651109 4.57106907 13.84700588 4.5625 15.1875 C4.5574866 16.53189942 4.55292342 17.8763006 4.54882812 19.22070312 C4.53699488 22.52217941 4.52050971 25.82356803 4.5 29.125 C4.17 29.125 3.84 29.125 3.5 29.125 C3.5 20.215 3.5 11.305 3.5 2.125 C1.52 2.125 -0.46 2.125 -2.5 2.125 C-2.83 11.035 -3.16 19.945 -3.5 29.125 C-3.83 29.125 -4.16 29.125 -4.5 29.125 C-4.52465881 25.15569011 -4.54284023 21.18640966 -4.55493164 17.21704102 C-4.55997057 15.86579614 -4.56680177 14.51455674 -4.57543945 13.16333008 C-4.58752419 11.22479566 -4.59269828 9.286222 -4.59765625 7.34765625 C-4.60289307 6.17984619 -4.60812988 5.01203613 -4.61352539 3.80883789 C-4.44208957 -0.24405228 -4.18416801 0.14943457 0 0 Z " fill="#78D19A" transform="translate(309.5,234.875)"/>
<path d="M0 0 C3.17218843 3.62535821 4.42902597 7.51150278 6 12 C2.7 12 -0.6 12 -4 12 C-3.45660208 7.43545749 -2.20536179 4.0271824 0 0 Z " fill="#56AA74" transform="translate(129,241)"/>
<path d="M0 0 C1.65 0 3.3 0 5 0 C5 3.63 5 7.26 5 11 C3.02 11 1.04 11 -1 11 C-1.02688151 9.35425434 -1.04634123 7.70838587 -1.0625 6.0625 C-1.07410156 5.14597656 -1.08570313 4.22945312 -1.09765625 3.28515625 C-1 1 -1 1 0 0 Z " fill="#19A04A" transform="translate(241,246)"/>
<path d="M0 0 C3.5 0.125 3.5 0.125 4.5 1.125 C4.58767112 3.19762076 4.60695873 5.27320294 4.59765625 7.34765625 C4.59443359 8.60771484 4.59121094 9.86777344 4.58789062 11.16601562 C4.57953403 12.50651109 4.57106907 13.84700588 4.5625 15.1875 C4.5574866 16.53189942 4.55292342 17.8763006 4.54882812 19.22070312 C4.53699488 22.52217941 4.52050971 25.82356803 4.5 29.125 C4.17 29.125 3.84 29.125 3.5 29.125 C3.17 20.545 2.84 11.965 2.5 3.125 C-0.47 2.63 -0.47 2.63 -3.5 2.125 C-3.5 6.415 -3.5 10.705 -3.5 15.125 C-4.16 15.125 -4.82 15.125 -5.5 15.125 C-5.35973717 12.81215544 -5.21264442 10.49972409 -5.0625 8.1875 C-4.98128906 6.89972656 -4.90007812 5.61195313 -4.81640625 4.28515625 C-4.40310576 0.15725378 -4.40310576 0.15725378 0 0 Z " fill="#85DDA6" transform="translate(341.5,234.875)"/>
<path d="M0 0 C1.60875 -0.04125 3.2175 -0.0825 4.875 -0.125 C5.77992188 -0.14820313 6.68484375 -0.17140625 7.6171875 -0.1953125 C10 0 10 0 12 2 C12.125 5.625 12.125 5.625 12 9 C8.09971775 11.60018816 4.52565431 11.15085514 0 11 C0 7.37 0 3.74 0 0 Z M1 1 C1 3.64 1 6.28 1 9 C5.455 8.505 5.455 8.505 10 8 C10.33 6.35 10.66 4.7 11 3 C7.49223216 1.39644899 4.85645121 0.77963136 1 1 Z " fill="#52A975" transform="translate(186,239)"/>
<path d="M0 0 C0.66 0 1.32 0 2 0 C2 3.63 2 7.26 2 11 C3.9490625 10.7215625 3.9490625 10.7215625 5.9375 10.4375 C8.15234375 10.12109375 8.15234375 10.12109375 10 10 C10.33 10.33 10.66 10.66 11 11 C12.66617115 11.04063832 14.33388095 11.042721 16 11 C16 11.66 16 12.32 16 13 C10.72 13 5.44 13 0 13 C0 8.71 0 4.42 0 0 Z " fill="#8CBFA1" transform="translate(260,246)"/>
<path d="M0 0 C0.66 0 1.32 0 2 0 C3.04191905 5.12690326 3.15018459 10.04518465 3.125 15.25 C3.12886719 16.0646875 3.13273438 16.879375 3.13671875 17.71875 C3.126739 23.74652201 3.126739 23.74652201 2 26 C1.34 26 0.68 26 0 26 C0 17.42 0 8.84 0 0 Z " fill="#4EB174" transform="translate(214,236)"/>
<path d="M0 0 C0.33 0 0.66 0 1 0 C1.33 4.62 1.66 9.24 2 14 C7.28 14.33 12.56 14.66 18 15 C18 13.02 18 11.04 18 9 C18.33 9 18.66 9 19 9 C19 11.31 19 13.62 19 16 C12.73 16 6.46 16 0 16 C-0.70815063 12.45924687 -1.13689078 9.81433386 -1.125 6.3125 C-1.12757813 5.54550781 -1.13015625 4.77851563 -1.1328125 3.98828125 C-1 2 -1 2 0 0 Z " fill="#53C17E" transform="translate(282,248)"/>
<path d="M0 0 C4.62 0 9.24 0 14 0 C14.66 1.65 15.32 3.3 16 5 C15.01 5 14.02 5 13 5 C13 4.01 13 3.02 13 2 C9.37 2 5.74 2 2 2 C1.34 3.65 0.68 5.3 0 7 C-3.125 7.8125 -3.125 7.8125 -6 8 C-6.66 7.01 -7.32 6.02 -8 5 C-7.01 5 -6.02 5 -5 5 C-4.67 4.34 -4.34 3.68 -4 3 C-4 3.99 -4 4.98 -4 6 C-1.7522025 3.94766315 -0.9977758 2.99332739 0 0 Z " fill="#48AD6C" transform="translate(122,256)"/>
<path d="M0 0 C3.3 0 6.6 0 10 0 C9.69209738 2.84809926 9.34521809 4.58286148 7.5 6.8125 C3.73512805 8.60081417 0.09873595 8.23646554 -4 8 C-4.33 7.34 -4.66 6.68 -5 6 C-2.36 6 0.28 6 3 6 C2.67 5.34 2.34 4.68 2 4 C3.65 4 5.3 4 7 4 C7 3.34 7 2.68 7 2 C4.69 1.67 2.38 1.34 0 1 C0 0.67 0 0.34 0 0 Z " fill="#409E64" transform="translate(160,251)"/>
<path d="M0 0 C2 3 2 3 2 5 C1.34 5 0.68 5 0 5 C0.33 5.99 0.66 6.98 1 8 C1 8.66 1 9.32 1 10 C1.32033957 12.00212229 1.65259077 14.00239695 2 16 C1.01 16 0.02 16 -1 16 C-3.67548031 11.98677954 -3.58740465 8.71626345 -3 4 C-1.5 1.4375 -1.5 1.4375 0 0 Z " fill="#39A561" transform="translate(154,240)"/>
<path d="M0 0 C0.5775 0.78375 1.155 1.5675 1.75 2.375 C3.94875111 4.94020963 4.93316141 5.83373744 8 7 C10.82085728 7.24073194 10.82085728 7.24073194 13.75 7.125 C14.73484375 7.10695313 15.7196875 7.08890625 16.734375 7.0703125 C17.48203125 7.04710937 18.2296875 7.02390625 19 7 C19 7.66 19 8.32 19 9 C14.66550305 10.21168892 10.47390453 10.61567494 6 10 C3.4375 8.125 3.4375 8.125 2 6 C2 5.34 2 4.68 2 4 C1.34 4 0.68 4 0 4 C0 2.68 0 1.36 0 0 Z " fill="#46A96C" transform="translate(148,254)"/>
<path d="M0 0 C2.6875 -0.4375 2.6875 -0.4375 6 0 C8.04775301 2.11124923 9.53480226 4.45859507 11 7 C10.67 7.66 10.34 8.32 10 9 C9.01 8.67 8.02 8.34 7 8 C6.67 7.34 6.34 6.68 6 6 C4.67696283 5.6278958 3.34262065 5.29369827 2 5 C0.55245745 3.55245745 0.44266439 1.96037087 0 0 Z " fill="#47AD6D" transform="translate(186,252)"/>
<path d="M0 0 C0.66 0 1.32 0 2 0 C4.29013653 3.4352048 4.17842973 4.985331 4 9 C2.35 9 0.7 9 -1 9 C-1.09765625 2.84765625 -1.09765625 2.84765625 -1 1 C-0.67 0.67 -0.34 0.34 0 0 Z " fill="#21C55D" transform="translate(322,254)"/>
<path d="M0 0 C0.66 0.33 1.32 0.66 2 1 C1.34 2.32 0.68 3.64 0 5 C1.65 5.33 3.3 5.66 5 6 C5 8 5 10 5 12 C4.34 12 3.68 12 3 12 C1.7109375 10.35546875 1.7109375 10.35546875 0.375 8.1875 C-0.07101563 7.47980469 -0.51703125 6.77210938 -0.9765625 6.04296875 C-2 4 -2 4 -2 1 C-1.34 0.67 -0.68 0.34 0 0 Z " fill="#49AF71" transform="translate(198,250)"/>
<path d="M0 0 C0.33 0 0.66 0 1 0 C1.2475 1.010625 1.495 2.02125 1.75 3.0625 C2.54863252 5.90979855 3.61844481 8.26952032 5.125 10.8125 C7 14 7 14 7 16 C6.01 15.67 5.02 15.34 4 15 C3.67 14.01 3.34 13.02 3 12 C2.34 11.67 1.68 11.34 1 11 C-0.28317892 7.15046324 -0.06643637 4.05261865 0 0 Z " fill="#5BC884" transform="translate(371,248)"/>
<path d="M0 0 C0.66 0.33 1.32 0.66 2 1 C2 3.31 2 5.62 2 8 C0.68 8.33 -0.64 8.66 -2 9 C-2.125 5.625 -2.125 5.625 -2 2 C-1.34 1.34 -0.68 0.68 0 0 Z " fill="#17A34A" transform="translate(233,247)"/>
<path d="M0 0 C1.2065625 0.0309375 1.2065625 0.0309375 2.4375 0.0625 C2.4375 1.7125 2.4375 3.3625 2.4375 5.0625 C0.7875 5.7225 -0.8625 6.3825 -2.5625 7.0625 C-2.94383299 5.0710944 -3.27575582 3.06970923 -3.5625 1.0625 C-2.5625 0.0625 -2.5625 0.0625 0 0 Z " fill="#23C35B" transform="translate(371.5625,236.9375)"/>
<path d="M0 0 C2.475 0.495 2.475 0.495 5 1 C5 2.32 5 3.64 5 5 C5.99 5.33 6.98 5.66 8 6 C8.33 6.99 8.66 7.98 9 9 C8.01 9 7.02 9 6 9 C4.39453125 7.03125 4.39453125 7.03125 2.8125 4.5 C2.28269531 3.6646875 1.75289063 2.829375 1.20703125 1.96875 C0.80871094 1.3190625 0.41039062 0.669375 0 0 Z " fill="#55CA81" transform="translate(328,250)"/>
<path d="M0 0 C1.32 0.66 2.64 1.32 4 2 C4 2.99 4 3.98 4 5 C1.69 5 -0.62 5 -3 5 C-3 4.34 -3 3.68 -3 3 C-2.34 3 -1.68 3 -1 3 C-0.67 2.01 -0.34 1.02 0 0 Z " fill="#1C9C4C" transform="translate(129,247)"/>
<path d="M0 0 C0.99 0.33 1.98 0.66 3 1 C3.33 2.65 3.66 4.3 4 6 C3.360625 5.690625 2.72125 5.38125 2.0625 5.0625 C-1.92049104 3.68064597 -5.81650849 3.3463457 -10 3 C-10 2.67 -10 2.34 -10 2 C-9.04287109 1.90912109 -9.04287109 1.90912109 -8.06640625 1.81640625 C-6.82697266 1.69072266 -6.82697266 1.69072266 -5.5625 1.5625 C-4.73878906 1.48128906 -3.91507813 1.40007812 -3.06640625 1.31640625 C-1.01337975 1.21069185 -1.01337975 1.21069185 0 0 Z " fill="#5DBD81" transform="translate(166,233)"/>
<path d="M0 0 C0.33 0 0.66 0 1 0 C1 2.64 1 5.28 1 8 C-0.98 8.66 -2.96 9.32 -5 10 C-3.35 6.7 -1.7 3.4 0 0 Z " fill="#52B178" transform="translate(173,251)"/>
<path d="M0 0 C1.65 0 3.3 0 5 0 C5 0.99 5 1.98 5 3 C2.59454362 4.20272819 1.05003047 4.10071472 -1.625 4.0625 C-2.85089844 4.04896484 -2.85089844 4.04896484 -4.1015625 4.03515625 C-5.04128906 4.01775391 -5.04128906 4.01775391 -6 4 C-6.33 3.34 -6.66 2.68 -7 2 C-4.36 2 -1.72 2 1 2 C0.67 1.34 0.34 0.68 0 0 Z " fill="#4AA76C" transform="translate(162,255)"/>
<path d="M0 0 C1.21386936 3.64160808 0.6674695 4.33165469 -0.9375 7.6875 C-1.31777344 8.49574219 -1.69804688 9.30398437 -2.08984375 10.13671875 C-2.39019531 10.75160156 -2.69054687 11.36648437 -3 12 C-3.33 12 -3.66 12 -4 12 C-4.24012841 7.91781703 -3.54828113 4.78468721 -2 1 C-1.34 0.67 -0.68 0.34 0 0 Z " fill="#60B77E" transform="translate(125,240)"/>
<path d="M0 0 C2.97 0 5.94 0 9 0 C8.34 2.97 7.68 5.94 7 9 C6.67 9 6.34 9 6 9 C6 6.69 6 4.38 6 2 C3.03 1.505 3.03 1.505 0 1 C0 0.67 0 0.34 0 0 Z " fill="#7DD29D" transform="translate(368,235)"/>
<path d="M0 0 C0.33 0.66 0.66 1.32 1 2 C1.99 2.33 2.98 2.66 4 3 C4 3.99 4 4.98 4 6 C2.35 6 0.7 6 -1 6 C-1.042721 4.33388095 -1.04063832 2.66617115 -1 1 C-0.67 0.67 -0.34 0.34 0 0 Z " fill="#21C45F" transform="translate(371,257)"/>
<path d="M0 0 C0.5775 0.763125 1.155 1.52625 1.75 2.3125 C3.71703093 4.66200917 5.48476744 6.29323505 8 8 C6.68 8.33 5.36 8.66 4 9 C3.34 7.35 2.68 5.7 2 4 C1.34 4 0.68 4 0 4 C0 2.68 0 1.36 0 0 Z " fill="#4EAE73" transform="translate(148,254)"/>
<path d="M0 0 C1.32 0.33 2.64 0.66 4 1 C3.67 1.99 3.34 2.98 3 4 C0.03 3.67 -2.94 3.34 -6 3 C-6 2.67 -6 2.34 -6 2 C-4.02 1.67 -2.04 1.34 0 1 C0 0.67 0 0.34 0 0 Z " fill="#1EC35A" transform="translate(296,258)"/>
<path d="M0 0 C2.39763185 2.39763185 2.34280586 3.33273498 2.625 6.625 C2.69976562 7.44226563 2.77453125 8.25953125 2.8515625 9.1015625 C2.90054688 9.72804688 2.94953125 10.35453125 3 11 C0.28527098 8.28527098 -0.14258516 5.69347931 -1 2 C-0.67 1.34 -0.34 0.68 0 0 Z " fill="#4CB374" transform="translate(139,251)"/>
<path d="M0 0 C0.391875 0.474375 0.78375 0.94875 1.1875 1.4375 C3.40808374 3.35179633 5.13375709 3.61266988 8 4 C8 4.33 8 4.66 8 5 C5.36 5 2.72 5 0 5 C-0.5625 3.0625 -0.5625 3.0625 -1 1 C-0.67 0.67 -0.34 0.34 0 0 Z " fill="#42BE71" transform="translate(368,259)"/>
</svg>
